<?xml version="1.0" standalone="no"?>
<!DOCTYPE svg PUBLIC "-//W3C//DTD SVG 20010904//EN"
 "http://www.w3.org/TR/2001/REC-SVG-20010904/DTD/svg10.dtd">
<svg version="1.0" xmlns="http://www.w3.org/2000/svg"
 width="12976.000000pt" height="12976.000000pt" viewBox="0 0 12976.000000 12976.000000"
 preserveAspectRatio="xMidYMid meet">

<g transform="translate(0.000000,12976.000000) scale(0.100000,-0.100000)"
fill="#000000" stroke="none">
<path d="M58120 127450 c-2589 -9 -3190 -19 -3278 -55 -52 -22 -107 -79 -131
-136 -56 -129 -67 -282 -81 -1084 -5 -319 -15 -618 -21 -665 -7 -51 -22 -110
-39 -146 -23 -51 -34 -64 -71 -82 -99 -48 -325 -67 -949 -82 -228 -6 -2253
-15 -4500 -20 -2247 -6 -4410 -14 -4807 -19 -710 -10 -722 -10 -772 -32 -146
-62 -179 -190 -200 -774 -6 -149 -16 -488 -22 -755 -6 -267 -12 -485 -12 -486
-1 0 -52 -43 -114 -96 l-111 -96 -1764 -5 c-1959 -6 -2123 -11 -2308 -67 -100
-31 -149 -84 -169 -180 -27 -138 -45 -487 -62 -1268 l-12 -523 -116 -116 -116
-115 -715 -8 c-393 -5 -1311 -14 -2040 -20 l-1325 -12 -49 -51 c-77 -83 -126
-152 -144 -204 -13 -41 -17 -150 -23 -788 -4 -481 -10 -764 -18 -810 -15 -93
-48 -202 -73 -243 -42 -68 -135 -100 -358 -123 -78 -7 -656 -14 -1810 -19
-1040 -5 -1747 -12 -1831 -19 -257 -20 -372 -83 -415 -226 -44 -148 -53 -314
-63 -1145 l-6 -585 -33 -65 c-18 -36 -63 -101 -102 -146 l-69 -81 -363 -7
c-830 -16 -1217 -27 -1295 -36 -237 -30 -322 -103 -359 -310 -9 -46 -18 -224
-24 -470 -23 -930 -42 -1184 -91 -1281 -66 -131 -177 -166 -594 -190 -104 -6
-892 -14 -1750 -19 -920 -6 -1607 -13 -1675 -20 -281 -25 -373 -64 -406 -175
-24 -80 -33 -259 -49 -953 -15 -638 -25 -855 -44 -905 -15 -38 -70 -96 -112
-118 -109 -55 -264 -68 -964 -79 -313 -5 -624 -14 -690 -20 -329 -29 -408 -96
-445 -375 -6 -44 -15 -357 -20 -695 -11 -738 -22 -906 -66 -994 -89 -175 -256
-205 -1144 -206 -781 -1 -933 -30 -1005 -195 -54 -123 -64 -248 -75 -990 -12
-813 -21 -881 -130 -979 -50 -45 -104 -69 -207 -93 -70 -16 -119 -18 -498 -13
-791 8 -980 6 -1080 -14 -49 -9 -113 -28 -141 -40 -63 -29 -121 -88 -134 -135
-29 -109 -46 -349 -60 -861 -6 -212 -15 -473 -20 -581 -20 -411 -54 -511 -193
-578 -88 -43 -193 -50 -902 -61 -616 -9 -774 -18 -904 -51 -144 -37 -205 -95
-221 -210 -28 -199 -44 -957 -60 -2784 -7 -693 -13 -1270 -16 -1281 -5 -27
-144 -147 -201 -174 -66 -31 -191 -40 -583 -40 -404 0 -866 -14 -1034 -31
-248 -25 -348 -90 -390 -254 -30 -119 -36 -251 -46 -945 -8 -564 -13 -715 -25
-755 -19 -66 -74 -156 -139 -229 l-53 -59 -349 -8 c-1179 -27 -1370 -35 -1474
-65 -45 -13 -67 -29 -131 -92 l-77 -77 -11 -1305 c-23 -2564 -33 -2792 -134
-2906 -79 -91 -159 -99 -1137 -114 -621 -10 -689 -15 -796 -66 -87 -41 -163
-154 -189 -283 -32 -153 -37 -369 -42 -2156 l-5 -1790 -91 -93 c-51 -52 -108
-102 -128 -112 -67 -35 -150 -40 -709 -40 -753 0 -989 -16 -1120 -76 -60 -27
-113 -73 -136 -116 -46 -89 -54 -464 -64 -3228 -9 -2308 -17 -2940 -40 -3092
-19 -127 -77 -217 -163 -253 -117 -48 -330 -65 -867 -65 -791 -1 -1029 -31
-1113 -142 -59 -77 -67 -111 -77 -340 -17 -367 -30 -2477 -30 -5068 0 -2509
-13 -4887 -29 -5341 -7 -210 -11 -251 -28 -290 -50 -112 -120 -153 -305 -180
-40 -6 -368 -14 -728 -19 -692 -9 -804 -16 -936 -60 -83 -28 -145 -83 -184
-166 l-31 -64 -9 -267 c-21 -590 -32 -2193 -37 -5758 -5 -3579 5 -6254 26
-6847 l8 -218 36 -72 c48 -97 90 -137 163 -154 137 -31 454 -48 1249 -65 l550
-11 117 -117 117 -116 21 -5235 c11 -2879 20 -5337 20 -5462 l0 -226 92 -78
c157 -132 117 -126 973 -129 723 -2 784 -5 932 -50 100 -30 182 -115 216 -226
11 -34 21 -119 27 -229 17 -284 29 -1640 30 -3195 0 -1431 12 -2530 29 -2776
10 -135 19 -163 73 -225 91 -103 231 -123 863 -124 438 0 782 -13 923 -34 179
-27 269 -77 310 -174 34 -80 42 -362 52 -1907 9 -1375 19 -1919 40 -2086 9
-79 36 -162 70 -216 45 -74 163 -116 378 -132 70 -5 397 -13 727 -16 643 -6
751 -12 830 -49 70 -32 159 -116 190 -180 25 -52 26 -59 36 -367 5 -173 14
-971 19 -1774 5 -803 14 -1530 20 -1615 20 -290 50 -411 115 -469 40 -35 125
-68 209 -82 33 -5 378 -14 766 -19 818 -10 896 -16 992 -76 71 -45 115 -133
138 -277 18 -112 30 -389 30 -692 0 -329 16 -808 30 -935 8 -67 16 -93 38
-125 39 -55 131 -101 247 -120 120 -21 476 -35 880 -35 336 0 649 -13 763 -31
85 -13 183 -58 211 -97 49 -70 76 -201 91 -457 6 -93 15 -831 20 -1640 5 -808
14 -1602 19 -1763 11 -336 13 -342 105 -437 62 -63 132 -100 217 -116 40 -7
327 -14 774 -19 403 -5 751 -13 805 -20 208 -24 290 -111 331 -352 25 -147 39
-502 39 -1028 0 -443 8 -575 39 -645 10 -23 47 -75 81 -116 35 -41 66 -77 69
-81 3 -4 292 -14 641 -23 907 -22 1099 -35 1233 -85 63 -24 128 -87 145 -141
22 -67 33 -313 42 -899 5 -327 14 -633 20 -680 22 -175 62 -282 129 -349 114
-114 274 -141 851 -141 379 0 852 -15 972 -30 162 -20 244 -97 277 -261 26
-127 32 -268 41 -849 12 -808 18 -872 96 -982 82 -117 252 -138 1127 -138 268
0 520 -5 575 -11 293 -32 401 -116 455 -354 19 -84 20 -136 27 -835 7 -808 5
-783 63 -883 31 -52 101 -118 155 -146 65 -33 309 -40 1712 -50 2137 -16 2315
-20 2406 -60 85 -38 145 -125 174 -256 25 -110 31 -252 40 -830 11 -741 22
-872 85 -981 44 -75 149 -124 311 -145 43 -6 387 -14 764 -18 571 -7 700 -11
774 -25 146 -27 213 -66 254 -149 45 -90 58 -246 72 -877 20 -907 32 -1001
132 -1097 59 -57 106 -71 288 -83 223 -15 1403 -29 2475 -30 1215 -1 1348 -9
1473 -89 74 -48 117 -106 146 -201 45 -142 49 -215 52 -915 3 -680 9 -797 44
-865 72 -141 173 -176 586 -200 99 -6 869 -15 1714 -20 1638 -10 1921 -17
2002 -52 113 -48 163 -163 188 -433 6 -66 15 -376 20 -690 9 -559 19 -767 41
-849 35 -132 100 -173 324 -203 104 -14 351 -17 1880 -23 1743 -8 1851 -10
1970 -41 63 -17 154 -69 201 -116 100 -100 123 -273 124 -928 0 -187 5 -437
10 -555 27 -566 49 -593 530 -631 350 -28 3280 -19 3647 11 133 11 166 24 240
96 60 59 97 130 113 219 7 36 14 337 20 760 11 844 17 912 92 1009 65 86 149
126 323 153 86 13 188 14 720 8 726 -8 790 -3 931 68 56 29 139 112 159 161 8
18 19 69 25 112 19 131 23 1019 12 2554 l-11 1455 -73 71 c-62 59 -83 73 -133
87 -105 29 -444 44 -1462 63 -193 4 -356 10 -360 13 -27 18 -145 169 -171 220
l-32 59 0 1960 0 1959 35 71 c23 46 64 100 119 158 l83 89 784 6 c519 4 808
10 854 18 122 20 202 49 246 88 65 59 87 114 99 245 45 526 45 3457 0 3902
-12 113 -48 191 -100 218 -78 39 -253 61 -615 78 -504 23 -1958 30 -7055 30
-4997 0 -7341 9 -7738 29 l-163 8 -56 39 c-43 29 -65 53 -86 94 -52 103 -57
164 -67 780 -14 930 -24 1041 -102 1156 -47 70 -168 105 -438 125 -87 6 -777
14 -1730 19 -971 5 -1641 13 -1730 19 -408 31 -499 84 -530 306 -7 47 -15 355
-20 745 -6 505 -12 690 -23 770 -35 240 -104 358 -230 395 -100 29 -358 43
-1087 60 -331 8 -601 22 -676 36 -79 15 -107 31 -185 106 l-66 63 -7 738 c-15
1680 -35 2802 -57 3196 -8 153 -14 196 -29 227 -68 132 -259 169 -885 169
-339 0 -808 15 -965 30 -86 8 -117 16 -170 43 -57 28 -68 38 -92 87 -15 31
-34 93 -42 140 -37 220 -41 406 -41 2135 1 1926 3 1990 70 2044 30 23 103 36
300 53 202 17 1314 17 1510 0 257 -23 303 -37 328 -101 33 -80 36 -139 67
-1206 17 -578 36 -760 88 -824 58 -71 175 -110 407 -133 169 -17 1154 -16
1298 0 139 17 221 42 299 95 77 51 111 104 138 212 35 141 41 266 50 1005 9
687 14 809 39 872 30 77 100 83 1006 83 767 0 832 -3 971 -46 114 -35 181
-121 204 -260 14 -90 29 -459 40 -1039 11 -536 19 -625 67 -733 47 -105 135
-155 313 -177 47 -6 382 -15 745 -20 645 -8 765 -14 890 -46 148 -37 214 -131
235 -335 16 -160 30 -619 30 -984 0 -422 -14 -698 -39 -794 -11 -40 -21 -74
-23 -76 -1 -1 -307 -8 -678 -14 -840 -15 -1142 -26 -1239 -47 -187 -39 -255
-121 -282 -336 -17 -136 -18 -1425 -1 -1533 38 -240 112 -320 327 -351 228
-33 947 -46 1318 -24 380 24 480 57 543 181 61 122 73 280 80 1109 7 849 12
913 75 945 63 33 414 40 2139 40 1950 0 1938 1 2102 -81 70 -35 128 -85 152
-132 23 -44 44 -138 56 -247 16 -140 24 -1182 12 -1455 -11 -257 -21 -298 -77
-324 -59 -28 -255 -36 -950 -36 -374 0 -734 -5 -800 -10 -218 -18 -301 -53
-361 -150 -63 -104 -78 -207 -96 -662 -13 -354 -1 -847 27 -1058 28 -203 97
-308 229 -349 130 -40 249 -46 911 -46 552 0 643 2 735 17 125 21 229 68 283
127 81 89 85 143 112 1425 8 368 16 670 18 672 2 2 448 9 991 16 l987 11 66
-64 c94 -92 139 -151 162 -214 20 -53 21 -86 31 -748 9 -685 16 -826 45 -962
39 -181 137 -252 381 -274 353 -32 1287 -14 1569 30 168 26 238 120 265 354 6
50 15 367 20 705 11 752 19 865 67 967 87 188 221 206 1462 201 l715 -3 13
-50 c18 -69 32 -456 33 -910 0 -411 14 -884 30 -1007 12 -96 35 -142 99 -200
56 -51 88 -60 271 -78 308 -29 1126 -41 1396 -20 234 19 348 70 403 182 62
126 79 303 88 903 6 441 -2 647 -33 821 -34 201 -107 307 -241 352 -42 14
-153 17 -948 23 -601 4 -917 10 -950 17 -27 7 -65 14 -82 17 l-33 6 0 707 c1
1114 17 1307 119 1409 35 36 118 77 173 87 119 21 491 28 2003 36 1616 8 1807
12 1970 41 134 24 199 75 230 183 27 95 35 597 45 2916 9 2192 21 3225 39
3370 19 146 98 229 252 264 127 29 284 37 904 46 347 5 664 14 705 19 107 15
199 46 241 80 122 101 153 314 153 1031 0 658 -31 924 -120 1030 -49 58 -186
89 -489 111 -114 8 -1256 14 -3990 19 -2509 5 -3900 11 -4033 18 -180 10 -210
14 -256 35 -135 62 -186 159 -217 412 -6 50 -15 398 -19 775 -5 400 -13 705
-19 732 -15 68 -35 102 -112 194 l-69 81 -1042 7 c-574 3 -1729 11 -2568 16
-2437 16 -2745 28 -2871 113 -51 34 -97 133 -109 237 -6 47 -15 384 -20 750
-9 665 -18 846 -44 934 -21 69 -78 133 -150 167 -145 69 -275 79 -1076 89
-407 5 -684 13 -714 19 -63 14 -100 36 -191 114 l-73 62 -6 90 c-3 50 -8 230
-11 400 -18 940 -35 1214 -87 1373 -42 131 -106 168 -316 182 -75 5 -477 14
-892 20 l-755 12 -116 116 -116 117 -12 640 c-21 1092 -29 1171 -132 1274 -92
93 -191 106 -904 121 -264 5 -602 13 -752 16 l-271 7 -59 71 c-68 81 -96 125
-120 187 -15 39 -18 121 -24 754 -4 434 -11 747 -18 805 -28 228 -89 334 -215
376 -117 39 -205 45 -866 54 -750 10 -876 20 -997 77 -58 27 -92 63 -129 135
-21 41 -26 70 -34 205 -15 232 -29 1290 -30 2178 0 790 -12 1425 -30 1613 -15
159 -60 236 -166 283 -118 53 -294 65 -1099 79 -674 11 -733 18 -848 97 -46
32 -93 124 -107 208 -22 138 -31 1141 -40 4395 -9 3100 -17 4055 -36 4145 -13
59 -75 135 -138 167 -97 50 -341 67 -956 68 -886 0 -1050 44 -1090 292 -38
242 -38 1385 1 1672 20 151 84 230 216 265 98 26 224 32 883 41 706 9 806 15
909 50 100 36 172 135 185 255 19 176 26 753 26 2035 0 1369 -6 1724 -31 1895
-33 224 -97 281 -340 305 -63 6 -391 15 -729 20 -679 10 -790 18 -929 62 -86
28 -153 92 -175 169 -29 100 -38 311 -43 1043 l-6 728 99 100 c107 108 130
123 202 139 28 7 335 14 777 19 774 9 813 11 953 60 115 41 174 116 192 245
23 176 30 666 39 2740 11 2334 16 2939 31 3201 22 387 51 474 173 523 85 34
175 40 767 51 965 17 1097 33 1196 142 53 60 73 113 84 230 18 185 30 847 30
1623 1 870 15 1928 30 2158 9 144 12 162 39 216 35 69 81 110 151 135 109 39
207 46 790 56 793 12 899 19 1037 61 115 36 180 123 203 274 23 152 30 1383
39 7215 14 8984 21 10327 51 10439 21 78 86 138 181 165 115 33 202 38 879 46
384 5 723 13 772 19 183 23 279 88 317 216 36 122 41 188 50 740 16 902 24
1017 81 1124 75 141 163 165 658 183 254 9 410 9 730 -1 471 -14 524 -19 609
-61 161 -80 186 -187 203 -860 13 -562 28 -931 41 -1005 15 -91 46 -177 78
-216 37 -45 120 -85 202 -98 152 -25 754 -32 3124 -41 2796 -10 3101 -16 3192
-63 148 -77 175 -230 188 -1092 7 -456 21 -809 36 -874 31 -143 131 -186 489
-211 94 -7 809 -15 1815 -21 913 -5 1719 -13 1790 -17 115 -7 137 -12 182 -36
60 -33 148 -117 173 -166 54 -106 66 -267 96 -1325 15 -555 15 -560 37 -578
56 -45 158 -98 217 -111 124 -29 492 -46 1300 -61 168 -3 346 -8 396 -11 l92
-6 67 -81 c38 -45 76 -101 87 -123 29 -67 38 -205 38 -629 0 -651 20 -1024 62
-1159 41 -132 114 -191 273 -221 160 -31 785 -43 1260 -25 384 15 496 37 583
115 60 54 78 97 92 215 6 47 15 360 20 695 12 772 22 920 70 1048 25 65 52 88
130 111 251 70 581 75 5770 81 4163 4 4847 9 5056 35 112 14 149 27 243 89
l78 51 7 228 c3 125 15 544 26 932 l20 705 115 115 115 115 1428 6 c2244 10
4122 9 4427 -1 396 -13 484 -33 592 -133 114 -105 120 -153 132 -947 15 -959
26 -1042 148 -1104 78 -39 319 -61 853 -77 215 -6 2009 -12 4560 -15 5030 -5
5369 -10 5620 -80 78 -23 105 -46 130 -111 48 -128 58 -282 70 -1048 9 -588
18 -757 45 -821 22 -53 81 -110 142 -137 136 -60 298 -76 868 -84 871 -11
1049 24 1150 230 70 143 84 321 85 1077 1 532 8 675 38 743 10 23 49 79 87
124 l67 81 92 6 c50 3 323 10 606 16 1105 23 1220 41 1299 202 45 92 51 189
61 928 10 747 16 809 81 946 69 145 179 182 613 204 115 6 918 15 1785 20 867
6 1633 14 1703 20 154 11 211 32 268 97 86 98 98 189 110 838 16 849 28 999
92 1125 40 78 93 115 184 130 152 25 743 32 2964 35 2349 4 2771 8 3025 26
335 23 432 54 492 157 53 90 55 112 63 867 7 663 13 788 40 912 41 184 140
277 320 302 244 33 1087 39 1425 11 300 -26 377 -64 435 -217 47 -123 56 -264
71 -1103 9 -532 15 -622 49 -718 36 -103 86 -148 200 -182 110 -33 242 -40
890 -50 821 -12 910 -22 1004 -116 51 -52 59 -79 67 -239 19 -378 31 -3072 40
-9475 9 -6642 15 -7880 39 -8035 22 -139 82 -230 179 -266 120 -44 199 -49
921 -59 393 -5 721 -13 770 -20 105 -14 174 -44 241 -106 64 -60 95 -115 103
-179 16 -139 28 -830 36 -2155 9 -1451 13 -1619 46 -1797 27 -152 69 -211 178
-252 89 -33 208 -40 826 -51 322 -5 656 -14 742 -20 178 -12 294 -39 354 -85
48 -37 93 -133 105 -225 20 -163 30 -1331 39 -4480 9 -3013 17 -3956 36 -4045
13 -59 75 -135 138 -167 97 -50 341 -67 956 -68 885 0 1050 -45 1089 -291 39
-241 39 -1359 1 -1667 -20 -154 -84 -235 -215 -271 -94 -25 -256 -32 -875 -41
-669 -9 -786 -15 -900 -50 -121 -36 -183 -116 -194 -250 -20 -225 -27 -1524
-36 -6180 -9 -4829 -19 -6600 -39 -6818 -7 -74 -15 -105 -42 -160 -42 -83 -85
-114 -192 -142 -120 -30 -279 -39 -847 -45 -579 -7 -753 -16 -880 -46 -180
-42 -241 -114 -260 -308 -18 -174 -30 -825 -30 -1606 0 -875 -15 -1966 -30
-2192 -8 -123 -14 -161 -31 -195 -35 -71 -68 -107 -118 -132 -114 -58 -295
-72 -1016 -81 -638 -7 -799 -20 -903 -74 -95 -49 -145 -153 -173 -361 -6 -51
-14 -373 -18 -805 -7 -615 -10 -727 -23 -768 -14 -42 -61 -106 -158 -217 l-25
-29 -550 -11 c-1016 -20 -1184 -30 -1290 -75 -92 -38 -140 -103 -170 -227 -17
-71 -29 -313 -45 -912 -20 -752 -38 -871 -142 -961 -123 -105 -338 -127 -1198
-123 -618 3 -703 -6 -798 -88 -103 -88 -122 -207 -142 -885 -17 -576 -30 -899
-41 -974 -13 -93 -46 -158 -116 -227 l-58 -57 -990 -10 c-544 -6 -1240 -13
-1545 -16 -658 -7 -1191 -21 -1350 -36 -194 -18 -298 -47 -342 -96 -26 -28
-64 -122 -72 -173 -17 -120 -27 -384 -36 -905 -10 -599 -19 -755 -50 -843 -60
-170 -161 -201 -718 -222 -141 -5 -990 -10 -1887 -10 l-1630 -1 -116 -99 -116
-100 -7 -253 c-3 -138 -11 -432 -16 -652 -18 -689 -35 -870 -93 -984 -46 -92
-101 -130 -205 -142 -202 -23 -1095 -31 -4337 -39 -2046 -5 -3562 -13 -3695
-19 -480 -22 -645 -53 -703 -132 -27 -37 -56 -162 -67 -291 -27 -292 -18
-3246 10 -3608 26 -333 58 -408 194 -459 98 -37 288 -47 1106 -61 512 -9 611
-16 716 -48 118 -36 186 -126 204 -267 21 -169 31 -999 40 -3325 9 -2352 16
-2831 41 -2925 29 -105 90 -171 190 -203 141 -45 236 -52 914 -62 647 -10 804
-19 894 -52 81 -30 111 -54 138 -115 62 -134 71 -325 79 -1643 6 -1077 -6
-2204 -26 -2394 -12 -109 -30 -154 -82 -202 -107 -101 -208 -112 -1383 -144
-370 -10 -488 -23 -571 -62 -88 -41 -131 -104 -159 -228 -33 -154 -44 -1429
-14 -1647 19 -139 67 -216 163 -263 122 -60 326 -80 841 -80 391 -1 820 -14
939 -30 130 -18 195 -66 236 -177 41 -110 51 -238 57 -723 8 -653 -12 -1003
-63 -1125 -23 -56 -78 -110 -142 -138 -86 -39 -196 -46 -852 -57 -618 -10
-784 -19 -918 -50 -128 -30 -186 -68 -227 -149 -42 -85 -50 -226 -50 -946 0
-827 8 -916 90 -1013 83 -98 282 -132 784 -132 350 -1 916 -17 1029 -30 108
-12 154 -32 223 -97 60 -56 95 -127 109 -218 17 -113 29 -793 29 -1620 1 -917
-15 -2099 -29 -2207 -19 -152 -112 -293 -212 -323 -73 -21 -256 -33 -678 -45
-719 -19 -786 -21 -925 -31 -205 -14 -243 -27 -334 -114 l-74 -71 -7 -1140
c-8 -1255 -3 -2466 10 -2757 10 -214 16 -232 110 -326 117 -117 178 -126 851
-118 828 9 1037 -12 1153 -114 61 -54 82 -92 95 -174 14 -89 28 -452 41 -1060
7 -326 15 -509 24 -571 39 -239 118 -315 348 -334 367 -30 3298 -39 3648 -11
316 25 412 57 460 152 56 109 68 258 80 959 10 585 21 813 46 900 50 176 121
206 549 230 99 6 956 15 1904 20 l1724 10 63 29 c45 21 91 56 158 121 l93 90
6 713 c5 697 12 846 42 996 28 136 77 212 163 249 81 35 364 42 2002 52 1874
11 2048 19 2191 96 68 37 88 70 99 161 17 141 33 475 51 1058 21 706 54 841
226 918 52 23 78 27 253 37 111 6 868 15 1760 20 861 5 1646 14 1745 20 304
18 433 50 488 121 28 38 61 139 79 244 7 47 12 289 14 745 2 571 5 690 18 770
35 201 110 290 281 335 109 28 305 35 785 29 920 -12 1077 24 1134 264 30 123
37 262 46 882 5 338 14 651 19 695 23 179 54 267 114 327 97 97 153 103 1142
118 635 11 714 17 823 71 114 56 154 144 172 384 6 77 15 412 20 745 10 686
19 789 74 898 13 26 35 57 48 69 34 32 124 70 193 82 129 23 627 32 2015 37
795 2 1536 9 1648 15 373 18 457 50 511 193 32 86 41 255 51 916 12 772 23
881 106 1002 39 56 93 87 175 98 107 15 580 30 984 30 492 0 654 16 785 76
142 65 206 194 229 461 6 65 11 273 11 463 0 379 15 852 30 972 16 132 69 207
170 243 130 46 318 58 1220 80 349 9 638 19 641 23 3 4 47 55 97 114 l92 106
0 1209 c0 1278 13 2327 30 2606 24 379 91 440 516 467 87 5 317 10 509 10 382
0 775 14 899 31 151 20 244 88 281 205 39 124 45 215 55 814 5 322 14 651 20
733 17 239 57 356 143 418 94 68 191 77 952 89 772 11 905 23 1023 90 71 41
101 89 112 181 5 41 14 349 20 684 15 884 25 1038 79 1143 38 73 110 116 228
132 38 6 341 14 674 19 830 13 994 25 1115 82 50 24 96 83 114 149 52 179 60
441 70 2205 9 1505 14 1770 40 1866 20 74 110 164 219 219 101 51 124 52 916
60 764 7 794 9 900 50 100 39 164 155 179 330 18 193 28 761 36 2055 10 1546
18 1827 52 1907 37 86 113 135 249 163 151 30 299 37 994 42 l710 5 91 90
c102 101 131 149 144 240 5 35 11 1258 14 2758 4 2579 11 3167 36 3373 20 164
99 267 239 311 146 46 219 50 956 52 464 1 707 5 742 12 74 16 109 36 207 120
l86 73 0 232 c0 128 9 2586 20 5462 l21 5230 115 115 114 116 763 18 c974 22
1042 27 1114 82 36 28 105 158 129 244 24 88 37 3427 30 7765 -6 3509 -15
4846 -36 5148 -8 122 -13 145 -40 202 -36 76 -100 136 -175 164 -126 47 -215
53 -975 61 -481 6 -733 12 -769 20 -112 24 -189 81 -211 158 -72 252 -80 747
-80 5382 -1 4699 -9 5294 -76 5592 -46 201 -106 213 -1129 228 -351 5 -637 13
-690 20 -282 37 -346 111 -365 418 -19 308 -30 1414 -30 3122 -1 2196 -11
2731 -56 2978 -30 168 -66 209 -214 245 -139 34 -273 40 -805 39 -533 -2 -777
7 -900 33 -98 21 -171 59 -201 105 -24 36 -26 51 -34 207 -19 362 -41 1618
-56 3236 l-7 718 -116 116 -116 115 -550 14 c-563 13 -886 26 -1125 45 -171
13 -223 34 -263 107 -74 137 -85 432 -108 2875 l-13 1307 -76 74 c-62 61 -86
77 -130 90 -103 30 -296 38 -1474 65 l-349 8 -49 54 c-64 72 -117 152 -139
208 -15 41 -18 109 -23 656 -11 968 -26 1114 -130 1217 -105 106 -286 128
-1046 128 -853 1 -955 20 -1044 197 -44 88 -52 216 -67 1078 -9 569 -17 664
-60 779 -26 70 -75 128 -132 155 -63 30 -265 41 -957 52 -333 5 -621 11 -640
14 -19 3 -69 10 -110 16 -174 25 -281 99 -319 222 -56 181 -62 360 -71 2147
-5 999 -12 1640 -19 1715 -24 260 -57 347 -152 396 -60 30 -243 39 -969 49
-634 9 -777 15 -875 41 -97 26 -162 84 -190 169 -27 82 -36 259 -45 890 -12
785 -19 872 -83 993 -36 69 -77 100 -167 127 -116 35 -216 41 -860 50 -349 5
-675 14 -725 19 -214 25 -308 63 -363 145 -70 105 -80 209 -92 1001 -10 630
-19 794 -51 890 -50 149 -127 184 -469 216 -88 8 -664 13 -1950 16 l-1825 4
-122 122 -123 122 0 580 c0 986 -22 1202 -133 1322 -50 54 -78 69 -153 83 -35
6 -335 15 -729 20 -694 9 -864 18 -969 51 -98 30 -177 79 -212 131 -66 98 -79
233 -99 1078 -16 646 -22 729 -67 832 -43 101 -141 155 -321 178 -79 10 -506
22 -1295 36 l-363 7 -70 81 c-86 101 -106 142 -119 253 -6 48 -15 383 -20 743
-10 668 -17 782 -55 907 -37 122 -142 217 -274 247 -136 31 -390 36 -1916 36
-1729 0 -1946 6 -2115 58 -105 33 -155 112 -180 293 -18 124 -30 502 -30 929
0 550 -15 711 -75 829 -40 79 -68 93 -204 102 -292 19 -1482 41 -3176 58
l-840 9 -116 116 -116 116 -7 318 c-23 1090 -46 1502 -86 1567 -44 72 -160
104 -440 125 -259 19 -1357 29 -3265 30 -2153 0 -2563 9 -2788 56 -141 29
-185 70 -216 201 -31 137 -41 313 -51 928 -11 673 -21 817 -60 895 -49 97
-121 123 -405 151 -73 7 -1029 14 -2860 19 -2655 8 -3047 13 -3168 40 -138 30
-219 84 -256 169 -47 110 -51 175 -61 876 -11 836 -15 889 -68 988 -28 52
-114 137 -165 163 -25 13 -110 17 -542 25 -1446 25 -12977 37 -18515 19z
m-33495 -88809 c166 -14 220 -30 278 -81 127 -112 150 -288 133 -1050 -15
-679 11 -874 130 -993 47 -47 122 -83 205 -98 42 -8 307 -14 789 -19 414 -5
756 -13 796 -19 39 -5 95 -19 123 -30 153 -58 191 -152 212 -524 14 -244 7
-1424 -9 -1481 -37 -134 -88 -142 -1022 -156 -349 -5 -714 -15 -810 -20 -198
-12 -233 -23 -291 -87 -84 -93 -107 -233 -119 -728 -5 -198 -9 -486 -10 -640
0 -298 -13 -565 -31 -654 -16 -77 -46 -104 -134 -122 -97 -19 -1522 -21 -1662
-1 -115 16 -203 42 -254 78 -49 34 -103 140 -120 234 -8 42 -14 320 -19 795
-5 432 -12 752 -19 783 -28 146 -65 216 -143 272 -96 70 -188 78 -1036 90
-682 11 -811 17 -872 42 -57 24 -98 75 -121 147 -39 128 -52 333 -74 1146 -14
521 -40 709 -110 801 -15 19 -52 46 -88 63 -103 49 -244 59 -1022 71 -655 11
-771 22 -896 86 -36 18 -88 80 -110 128 -38 87 -59 410 -59 916 0 719 42 944
188 1019 48 25 192 31 855 41 828 12 5169 5 5322 -9z m4463 -4531 c229 -16
320 -45 391 -125 101 -116 121 -350 102 -1217 -14 -664 -25 -783 -71 -808 -9
-5 -68 -15 -131 -22 -159 -18 -1613 -18 -1784 0 -139 14 -163 27 -183 93 -31
99 -38 1227 -11 1777 11 226 15 240 77 265 55 22 111 29 272 37 229 11 1180
11 1338 0z"/>
</g>
</svg>
