<?xml version="1.0" standalone="no"?>
<!DOCTYPE svg PUBLIC "-//W3C//DTD SVG 20010904//EN"
 "http://www.w3.org/TR/2001/REC-SVG-20010904/DTD/svg10.dtd">
<svg version="1.0" xmlns="http://www.w3.org/2000/svg"
 width="4096.000000pt" height="4096.000000pt" viewBox="0 0 4096.000000 4096.000000"
 preserveAspectRatio="xMidYMid meet">

<g transform="translate(0.000000,4096.000000) scale(0.100000,-0.100000)"
fill="#000000" stroke="none">
<path d="M19110 40736 c0 -137 -4 -235 -11 -255 -23 -66 143 -61 -2167 -61
-1540 0 -2108 -3 -2132 -11 -52 -19 -60 -51 -60 -262 0 -101 -5 -197 -10 -213
-22 -62 16 -59 -807 -61 -548 -1 -757 -5 -773 -13 -42 -23 -50 -65 -50 -275
l0 -197 -29 -29 -29 -29 -472 0 c-522 0 -528 -1 -549 -60 -7 -20 -11 -105 -11
-215 0 -193 -8 -237 -44 -258 -15 -9 -149 -13 -508 -17 l-487 -5 -23 -23 c-22
-22 -23 -31 -28 -235 -5 -222 -10 -245 -53 -269 -16 -9 -136 -11 -473 -9 -309
2 -464 -1 -493 -9 -71 -19 -76 -35 -76 -260 -1 -202 -8 -249 -43 -267 -10 -4
-236 -10 -504 -13 l-488 -5 -27 -28 -28 -27 -5 -218 c-3 -119 -9 -223 -14
-231 -22 -34 -73 -42 -264 -40 -201 1 -231 -4 -251 -48 -7 -15 -11 -94 -11
-206 0 -187 -8 -245 -37 -268 -12 -11 -71 -15 -234 -19 l-219 -5 -27 -28 -28
-27 -5 -213 c-3 -116 -9 -220 -14 -230 -19 -40 -56 -47 -255 -47 -104 0 -201
-4 -215 -10 -55 -21 -61 -46 -63 -268 -2 -229 -6 -244 -70 -261 -22 -5 -224
-8 -479 -7 -301 2 -452 0 -475 -8 -61 -20 -69 -52 -69 -278 0 -194 0 -197 -24
-225 l-24 -28 -214 -5 c-223 -5 -246 -10 -270 -53 -9 -16 -13 -141 -13 -497
-1 -347 -5 -481 -14 -497 -22 -42 -45 -46 -246 -44 -165 1 -195 -1 -225 -16
-56 -29 -60 -46 -60 -261 0 -202 -7 -239 -47 -258 -10 -4 -114 -11 -230 -14
l-213 -5 -27 -28 -28 -27 -5 -219 c-4 -164 -8 -222 -19 -234 -24 -30 -88 -39
-265 -35 -187 3 -225 -4 -245 -48 -7 -16 -11 -95 -11 -215 0 -192 -8 -244 -41
-265 -8 -5 -112 -11 -231 -14 l-218 -5 -27 -28 -28 -27 -5 -488 c-3 -268 -9
-494 -13 -504 -18 -35 -65 -43 -267 -43 -167 0 -200 -3 -222 -17 -46 -30 -50
-73 -47 -558 2 -343 0 -450 -10 -468 -24 -45 -66 -53 -271 -51 -206 3 -230 -3
-250 -57 -6 -15 -10 -217 -10 -485 0 -510 -1 -517 -60 -538 -20 -7 -107 -11
-222 -11 -218 0 -240 -6 -257 -68 -7 -23 -11 -210 -11 -500 l0 -464 -29 -29
-29 -29 -197 0 c-199 0 -250 -8 -271 -41 -5 -8 -11 -357 -14 -776 l-5 -763
-28 -27 -27 -28 -213 -5 c-231 -5 -248 -9 -266 -61 -8 -23 -11 -624 -11 -2131
0 -2310 5 -2144 -61 -2167 -20 -7 -118 -11 -255 -11 l-224 0 0 -1370 0 -1370
224 0 c137 0 235 -4 255 -11 66 -23 61 143 61 -2167 0 -1507 3 -2108 11 -2131
18 -52 35 -56 266 -61 l213 -5 27 -28 28 -27 5 -763 c3 -419 9 -768 14 -776
21 -33 72 -41 271 -41 l197 0 29 -29 29 -29 0 -464 c0 -290 4 -477 11 -500 17
-62 39 -68 259 -68 218 0 250 -7 269 -60 7 -23 11 -175 11 -491 0 -267 4 -468
10 -483 20 -54 44 -60 250 -57 205 2 247 -6 271 -51 10 -18 12 -125 10 -468
-3 -485 1 -528 47 -558 22 -14 55 -17 222 -17 202 0 249 -8 267 -43 4 -10 10
-236 13 -504 l5 -488 28 -27 27 -28 218 -5 c119 -3 223 -9 231 -14 33 -21 41
-73 41 -265 0 -120 4 -199 11 -215 20 -44 58 -51 245 -48 177 4 241 -5 265
-35 11 -12 15 -70 19 -234 l5 -219 28 -27 27 -28 213 -5 c116 -3 220 -10 230
-14 40 -19 47 -56 47 -258 0 -215 4 -232 60 -261 30 -15 60 -17 225 -16 201 2
224 -2 246 -44 9 -16 13 -150 14 -497 0 -356 4 -481 13 -497 24 -43 47 -48
270 -53 l214 -5 24 -28 c24 -28 24 -31 24 -225 0 -226 8 -258 69 -278 23 -8
174 -10 475 -8 255 1 457 -2 479 -7 64 -17 68 -32 70 -261 2 -222 8 -247 63
-268 14 -6 111 -10 215 -10 199 0 236 -7 255 -47 5 -10 11 -114 14 -230 l5
-213 28 -27 27 -28 219 -5 c163 -4 222 -8 234 -19 29 -23 37 -81 37 -268 0
-112 4 -191 11 -206 20 -44 50 -49 251 -48 191 2 242 -6 264 -40 5 -8 11 -112
14 -231 l5 -218 28 -27 27 -28 488 -5 c268 -3 494 -9 504 -13 35 -18 42 -65
43 -267 0 -225 5 -241 76 -260 29 -8 184 -11 493 -9 337 2 457 0 473 -9 43
-24 48 -47 53 -269 5 -204 6 -213 28 -235 l23 -23 487 -5 c359 -4 493 -8 508
-17 36 -21 44 -65 44 -258 0 -110 4 -195 11 -215 21 -59 27 -60 549 -60 l472
0 29 -29 29 -29 0 -197 c0 -210 8 -252 50 -275 16 -8 225 -12 773 -13 823 -2
785 1 807 -61 5 -16 10 -111 10 -211 0 -110 4 -195 11 -215 23 -64 -129 -60
2179 -60 2312 0 2146 5 2169 -61 7 -20 11 -118 11 -255 l0 -224 1370 0 1370 0
0 224 c0 137 4 235 11 255 23 66 -143 61 2169 61 2308 0 2156 -4 2179 60 7 20
11 105 11 215 0 100 5 195 10 211 22 62 -16 59 807 61 548 1 757 5 773 13 42
23 50 65 50 275 l0 197 29 29 29 29 472 0 c522 0 528 1 549 60 7 20 11 105 11
215 0 193 8 237 44 258 15 9 149 13 508 17 l487 5 23 23 c22 22 23 31 28 235
5 222 10 245 53 269 16 9 136 11 473 9 309 -2 464 1 493 9 71 19 76 35 76 260
1 202 8 249 43 267 10 4 236 10 504 13 l488 5 27 28 28 27 5 218 c3 119 9 223
14 231 22 34 73 42 264 40 201 -1 231 4 251 48 7 15 11 94 11 206 0 187 8 245
37 268 12 11 71 15 234 19 l219 5 27 28 28 27 5 213 c3 116 9 220 14 230 19
40 56 47 255 47 104 0 201 4 215 10 55 21 61 46 63 268 2 230 6 245 70 260 21
5 237 8 479 7 297 -1 453 2 475 9 61 20 69 52 69 278 0 194 0 197 24 225 l24
28 214 5 c223 5 246 10 270 53 9 16 12 141 13 497 1 346 5 481 14 497 22 42
45 46 246 44 165 -1 195 1 225 16 56 29 60 46 60 261 0 202 7 239 47 258 10 4
114 11 230 14 l213 5 27 28 28 27 5 219 c4 164 8 222 19 234 24 30 88 39 265
35 187 -3 225 4 245 48 7 16 11 95 11 215 0 192 8 244 41 265 8 5 112 11 231
14 l218 5 27 28 28 27 5 488 c3 268 9 494 13 504 18 35 65 43 267 43 167 0
200 3 222 17 46 30 50 73 47 558 -2 343 0 450 10 468 24 45 66 53 271 51 206
-3 230 3 250 57 6 15 10 216 10 483 0 316 4 468 11 491 19 53 51 60 269 60
220 0 242 6 259 68 7 23 11 210 11 500 l0 464 29 29 29 29 197 0 c199 0 250 8
271 41 5 8 11 357 14 776 l5 763 28 27 27 28 213 5 c231 5 248 9 266 61 8 23
11 624 11 2131 0 2310 -5 2144 61 2167 20 7 118 11 255 11 l224 0 0 1370 0
1370 -224 0 c-137 0 -235 4 -255 11 -66 23 -61 -143 -61 2167 0 1507 -3 2108
-11 2131 -18 52 -35 56 -266 61 l-213 5 -27 28 -28 27 -5 763 c-3 419 -9 768
-14 776 -21 33 -72 41 -271 41 l-197 0 -29 29 -29 29 0 464 c0 290 -4 477 -11
500 -17 62 -39 68 -257 68 -115 0 -202 4 -222 11 -59 21 -60 28 -60 538 0 268
-4 470 -10 485 -20 54 -44 60 -250 57 -205 -2 -247 6 -271 51 -10 18 -12 125
-10 468 3 485 -1 528 -47 558 -22 14 -55 17 -222 17 -202 0 -249 8 -267 43 -4
10 -10 236 -13 504 l-5 488 -28 27 -27 28 -218 5 c-119 3 -223 9 -231 14 -33
21 -41 73 -41 265 0 120 -4 199 -11 215 -20 44 -58 51 -245 48 -177 -4 -241 5
-265 35 -11 12 -15 70 -19 234 l-5 219 -28 27 -27 28 -213 5 c-116 3 -220 10
-230 14 -40 19 -47 56 -47 258 0 215 -4 232 -60 261 -30 15 -60 17 -225 16
-201 -2 -224 2 -246 44 -9 16 -13 151 -14 497 -1 356 -4 481 -13 497 -24 43
-47 48 -270 53 l-214 5 -24 28 c-24 28 -24 31 -24 225 0 226 -8 258 -69 278
-22 7 -178 10 -475 9 -242 -1 -458 2 -479 7 -64 15 -68 30 -70 260 -2 222 -8
247 -63 268 -14 6 -111 10 -215 10 -199 0 -236 7 -255 47 -5 10 -11 114 -14
230 l-5 213 -28 27 -27 28 -219 5 c-163 4 -222 8 -234 19 -29 23 -37 81 -37
268 0 112 -4 191 -11 206 -20 44 -50 49 -251 48 -191 -2 -242 6 -264 40 -5 8
-11 112 -14 231 l-5 218 -28 27 -27 28 -488 5 c-268 3 -494 9 -504 13 -35 18
-42 65 -43 267 0 225 -5 241 -76 260 -29 8 -184 11 -493 9 -337 -2 -457 0
-473 9 -43 24 -48 47 -53 269 -5 204 -6 213 -28 235 l-23 23 -487 5 c-359 4
-493 8 -508 17 -36 21 -44 65 -44 258 0 110 -4 195 -11 215 -21 59 -27 60
-549 60 l-472 0 -29 29 -29 29 0 197 c0 210 -8 252 -50 275 -16 8 -225 12
-773 13 -823 2 -785 -1 -807 61 -5 16 -10 111 -10 211 0 110 -4 195 -11 215
-23 64 129 60 -2179 60 -2312 0 -2146 -5 -2169 61 -7 20 -11 118 -11 255 l0
224 -1370 0 -1370 0 0 -224z m-5493 -10189 l28 -27 5 -218 c3 -119 9 -223 14
-231 21 -33 72 -41 271 -41 l197 0 29 -29 c18 -19 29 -40 29 -58 0 -235 7
-391 18 -410 25 -44 46 -48 257 -48 177 0 204 -2 228 -18 16 -10 32 -29 37
-43 6 -16 10 -416 10 -1030 0 -1106 3 -1050 -61 -1073 -19 -7 -108 -11 -221
-11 -198 0 -235 -7 -254 -47 -5 -10 -10 -234 -11 -497 -3 -521 -2 -515 -59
-536 -15 -6 -219 -10 -490 -10 -513 0 -512 0 -533 -61 -7 -19 -11 -108 -11
-221 0 -218 -6 -240 -68 -257 -24 -7 -287 -11 -750 -11 -768 0 -764 0 -794 52
-9 17 -13 76 -13 223 0 177 -2 204 -18 228 -10 15 -29 32 -43 37 -15 6 -219
10 -490 10 -513 0 -512 0 -533 61 -7 19 -11 108 -11 221 0 220 -6 241 -70 258
-23 6 -116 10 -218 9 -192 -1 -221 4 -242 49 -8 19 -11 149 -10 474 0 279 -3
463 -10 487 -20 74 -25 75 -271 81 -211 5 -219 6 -241 28 l-23 23 -3 472 c-2
343 1 479 9 500 21 51 49 57 257 57 106 0 202 5 219 10 58 21 58 21 60 535 2
479 5 514 41 532 10 4 236 10 504 13 l488 5 27 28 28 27 5 213 c3 116 9 220
14 231 22 47 -10 45 1358 43 l1288 -2 27 -28z m12019 -6010 c24 -28 24 -31 24
-225 0 -295 -4 -291 285 -291 152 -1 185 2 215 17 56 27 60 45 60 260 0 211 7
244 56 262 33 13 385 13 418 0 55 -20 60 -45 61 -264 0 -231 5 -247 75 -266
27 -7 276 -10 764 -10 785 2 775 2 790 -52 3 -13 6 -104 6 -203 0 -99 5 -197
11 -217 19 -69 11 -68 533 -68 271 0 475 -4 490 -10 14 -5 33 -21 43 -37 16
-24 18 -51 18 -228 0 -147 4 -206 13 -223 25 -44 66 -52 277 -52 l197 0 29
-29 29 -29 0 -464 c0 -290 4 -477 11 -500 17 -62 39 -68 259 -68 218 0 250 -7
269 -60 7 -23 11 -175 11 -491 0 -267 4 -468 10 -483 20 -53 42 -58 249 -57
203 2 248 -6 270 -48 14 -26 16 -10777 2 -10815 -6 -13 -20 -30 -32 -36 -18
-10 -198 -15 -402 -11 -18 1 -40 12 -58 30 l-29 29 0 197 c0 216 -8 257 -55
275 -36 14 -3144 14 -3180 0 -47 -18 -55 -59 -55 -275 l0 -197 -29 -29 c-16
-16 -40 -29 -53 -30 -139 -3 -380 0 -397 6 -12 3 -28 19 -36 35 -13 26 -15
526 -15 4307 0 2948 -3 4290 -11 4316 -18 67 -35 72 -269 72 -212 0 -237 4
-257 45 -5 8 -10 234 -13 502 l-5 488 -28 27 -27 28 -219 5 c-164 4 -222 8
-234 19 -29 24 -37 85 -37 268 1 194 -4 223 -48 243 -17 7 -90 11 -211 11
-203 0 -247 8 -268 49 -9 17 -13 82 -13 212 0 216 -10 259 -62 277 -42 15
-2033 15 -2074 1 -55 -19 -58 -36 -64 -270 -3 -118 -9 -221 -14 -229 -22 -33
-73 -41 -264 -41 -125 1 -197 -3 -214 -10 -45 -21 -51 -50 -49 -242 2 -182 -6
-245 -36 -269 -12 -11 -70 -15 -232 -19 -236 -6 -252 -9 -271 -64 -7 -19 -10
-1608 -10 -4857 0 -3044 -4 -4837 -10 -4853 -22 -58 -17 -57 -512 -57 -249 0
-463 1 -476 1 -13 0 -37 13 -53 29 l-29 29 0 197 c0 216 -8 257 -55 275 -17 6
-489 10 -1326 10 l-1301 0 -29 -29 -29 -29 0 -197 c0 -209 -8 -252 -49 -274
-27 -15 -946 -16 -983 -2 -15 6 -32 19 -37 30 -15 27 -16 14074 -1 14101 6 11
19 24 30 30 13 7 783 10 2406 10 2148 0 2390 -1 2411 -15 13 -9 28 -27 33 -41
6 -15 10 -317 10 -759 0 -442 4 -744 10 -759 5 -14 21 -33 37 -43 24 -16 52
-18 233 -18 234 0 251 5 269 72 6 21 11 123 11 226 l0 189 29 29 29 29 197 0
c199 0 250 8 271 41 5 8 11 112 14 231 l5 218 28 27 27 28 218 5 c119 3 223 9
231 14 33 21 41 73 41 260 0 102 4 196 10 210 22 60 -11 57 794 56 819 -1 793
-3 821 64 11 27 15 82 15 228 0 207 4 228 54 248 11 5 113 8 224 7 l204 -2 24
-28z m-10939 -532 c13 -9 28 -27 33 -41 6 -15 10 -215 10 -480 0 -519 1 -515
-70 -534 -25 -7 -113 -10 -218 -9 -110 1 -187 -2 -204 -9 -53 -22 -53 -23 -56
-502 -2 -245 0 -464 3 -488 3 -23 17 -55 30 -70 l23 -27 214 -5 c117 -3 221
-9 231 -14 10 -5 24 -21 32 -37 13 -24 15 -672 15 -5128 0 -3217 -4 -5109 -10
-5125 -5 -14 -21 -33 -37 -43 -24 -16 -51 -18 -228 -18 -231 0 -246 -4 -266
-77 -12 -47 -8 -401 5 -431 19 -42 60 -50 254 -48 117 1 197 -2 219 -10 63
-20 63 -24 63 -533 0 -265 -4 -465 -10 -480 -21 -57 -17 -57 -506 -57 -247 0
-462 1 -477 1 -18 0 -39 11 -58 29 l-29 29 0 197 c0 216 -8 257 -55 275 -36
14 -3144 14 -3180 0 -47 -18 -55 -59 -55 -275 l0 -197 -29 -29 c-18 -18 -40
-29 -58 -30 -204 -4 -384 1 -402 11 -12 6 -26 23 -32 36 -12 34 -13 14053 0
14087 11 29 23 38 63 46 16 3 1094 5 2395 4 2128 -2 2368 -4 2390 -18z"/>
</g>
</svg>
